<svg xmlns="http://www.w3.org/2000/svg" width="900" height="1125" viewBox="0 0 900 1125">
  <defs>
    <linearGradient id="bg" x1="0" y1="0" x2="1" y2="1">
      <stop offset="0" stop-color="#020c08"/>
      <stop offset="1" stop-color="#163a2b"/>
    </linearGradient>
    <radialGradient id="mist" cx="30%" cy="25%" r="80%">
      <stop offset="0" stop-color="#f6f1e8" stop-opacity="0.12"/>
      <stop offset="1" stop-color="#000000" stop-opacity="0"/>
    </radialGradient>
  </defs>
  <rect width="900" height="1125" fill="url(#bg)"/>
  <rect width="900" height="1125" fill="url(#mist)"/>
  <path d="M456 304c-6 132-56 204-132 274 78 8 140-55 172-128 18 108 76 174 182 186-76-78-127-151-137-332-13 38-24 52-85 0z"
        fill="#f6f1e8" opacity="0.08"/>
  <path d="M450 315c-52 110-150 170-204 245 112 16 202-88 224-164 22 88 106 165 226 160-72-72-170-142-222-241-10 16-11 16-24 0z"
        fill="#d4af37" opacity="0.13"/>
  <rect x="310" y="720" width="280" height="210" rx="45" fill="#07130e" opacity="0.92" stroke="#d4af37" stroke-opacity="0.18" stroke-width="6"/>
</svg>
