<svg xmlns="http://www.w3.org/2000/svg" width="900" height="1125" viewBox="0 0 900 1125">
  <defs>
    <radialGradient id="g1" cx="30%" cy="18%" r="85%">
      <stop offset="0" stop-color="#f6f1e8" stop-opacity="0.9"/>
      <stop offset="0.42" stop-color="#d4af37" stop-opacity="0.35"/>
      <stop offset="1" stop-color="#07130e" stop-opacity="1"/>
    </radialGradient>
    <linearGradient id="g2" x1="0" y1="0" x2="1" y2="1">
      <stop offset="0" stop-color="#1a3a2c" stop-opacity="0.9"/>
      <stop offset="1" stop-color="#020c08" stop-opacity="1"/>
    </linearGradient>
  </defs>
  <rect width="900" height="1125" fill="url(#g2)"/>
  <circle cx="290" cy="230" r="360" fill="url(#g1)" opacity="0.95"/>
  <path d="M505 362c-52 8-94 45-107 95-17 67 22 139 93 164 77 27 164-19 188-95 24-75-28-178-174-164z"
        fill="#d4af37" opacity="0.25"/>
  <path d="M365 785c112 68 248 50 326-20-45 125-204 222-364 178-72-20-117-63-137-106 62 19 116 8 175-52z"
        fill="#f6f1e8" opacity="0.08"/>
</svg>
